<svg xmlns="http://www.w3.org/2000/svg" viewBox="0 0 37.041666 37.041668"><path d="M 43.75 0 L 35 35 L 0 35 L 0 52.5 L 30.625 52.5 L 21.875 87.5 L 0 87.5 L 0 105 L 17.5 105 L 8.75 140 L 26.25 140 L 35 105 L 87.5 105 L 78.75 140 L 96.25 140 L 105 105 L 140 105 L 140 87.5 L 109.375 87.5 L 118.125 52.5 L 140 52.5 L 140 35 L 122.5 35 L 131.25 0 L 113.75 0 L 105 35 L 52.5 35 L 61.25 0 L 43.75 0 z M 48.125 52.5 L 100.625 52.5 L 91.875 87.5 L 39.375 87.5 L 48.125 52.5 z " transform="scale(0.26458333)" /></svg>
