<svg xmlns="http://www.w3.org/2000/svg" viewBox="0 0 37.041666 37.041668"><path transform="scale(0.26458333)" d="M 35 0 C 15.610003 -4.7369516e-15 0 15.610003 0 35 L 0 105 C -4.7369516e-15 124.39 15.610003 140 35 140 L 105 140 C 124.39 140 140 124.39 140 105 L 140 35 C 140 15.610003 124.39 0 105 0 L 35 0 z M 45.228516 10.228516 L 94.771484 10.228516 C 114.16148 10.228516 129.77148 25.83852 129.77148 45.228516 L 129.77148 94.771484 C 129.77148 114.16148 114.16148 129.77148 94.771484 129.77148 L 45.228516 129.77148 C 25.83852 129.77148 10.228516 114.16148 10.228516 94.771484 L 10.228516 45.228516 C 10.228516 25.83852 25.83852 10.228516 45.228516 10.228516 z "/><path transform="scale(0.26458333)" d="M 69 35 C 65.676 35 63 37.787495 63 41.25 L 63 63 L 41.25 63 C 37.787495 63 35 65.676 35 69 L 35 71 C 35 74.324 37.787495 77 41.25 77 L 63 77 L 63 98.75 C 63 102.2125 65.676 105 69 105 L 71 105 C 74.324 105 77 102.2125 77 98.75 L 77 77 L 98.75 77 C 102.2125 77 105 74.324 105 71 L 105 69 C 105 65.676 102.2125 63 98.75 63 L 77 63 L 77 41.25 C 77 37.787495 74.324 35 71 35 L 69 35 z " />
</svg>
