<?xml version="1.0" encoding="UTF-8" standalone="no"?>
<svg
   xmlns:dc="http://purl.org/dc/elements/1.1/"
   xmlns:cc="http://creativecommons.org/ns#"
   xmlns:rdf="http://www.w3.org/1999/02/22-rdf-syntax-ns#"
   xmlns:svg="http://www.w3.org/2000/svg"
   xmlns="http://www.w3.org/2000/svg"
   id="svg8"
   version="1.1"
   viewBox="0 0 317.5 317.50001"
   height="1200"
   width="1200">
  <defs
     id="defs2" />
  <metadata
     id="metadata5">
    <rdf:RDF>
      <cc:Work
         rdf:about="">
        <dc:format>image/svg+xml</dc:format>
        <dc:type
           rdf:resource="http://purl.org/dc/dcmitype/StillImage" />
        <dc:title></dc:title>
      </cc:Work>
    </rdf:RDF>
  </metadata>
  <g
     id="layer2" />
  <g
     id="layer1">
    <path
       id="path1060"
       d="m 94.257801,79.374994 h 74.414059 l 64.4922,79.374996 -64.4922,79.375 H 94.257801 L 158.75,158.74999 Z"
       style="fill:#6ebfeb;stroke:none;stroke-width:0.264583px;stroke-linecap:butt;stroke-linejoin:miter;stroke-opacity:1;fill-opacity:1" />
    <path
       id="path1064"
       d="m 84.335934,79.374994 64.492196,79.374996 -64.492196,79.375 H 9.9218743 L 74.414064,158.74999 9.9218743,79.374994 Z"
       style="fill:#6ebfeb;stroke:none;stroke-width:0;stroke-linecap:butt;stroke-linejoin:miter;stroke-opacity:1;fill-opacity:1;stroke-miterlimit:4;stroke-dasharray:none" />
    <path
       transform="scale(0.26458334)"
       d="M 881.25 646.1543 L 839.0625 698.07617 L 675 900 L 796.875 900 L 881.25 796.1543 L 1040.625 796.1543 L 1040.625 698.07617 L 960.9375 698.07617 L 1003.125 646.1543 L 881.25 646.1543 z "
       style="fill:#ed313e;fill-opacity:1;stroke:none;stroke-width:0;stroke-linecap:butt;stroke-linejoin:miter;stroke-miterlimit:4;stroke-dasharray:none;stroke-opacity:1"
       id="path1070" />
    <path
       id="path1120"
       d="M 9.9218746,243.44028 H 267.27046 v 10.63058 H 18.559222 Z"
       style="fill:#ebe757;fill-opacity:1;stroke:none;stroke-width:0;stroke-linecap:butt;stroke-linejoin:miter;stroke-miterlimit:4;stroke-dasharray:none;stroke-opacity:1" />
    <path
       id="path901"
       d="m 233.16405,170.96152 c 0,0 74.41407,-91.586526 74.41407,-91.586526 l -3e-5,174.695856 H 275.332 v -95.32086 l -9.92187,12.21153 z"
       style="fill:#6ebfeb;stroke:none;stroke-width:0.264583px;stroke-linecap:butt;stroke-linejoin:miter;stroke-opacity:1;fill-opacity:1" />
  </g>
  <g
     id="layer3" />
</svg>
